<svg width="100" height="100" viewBox="0 0 100 100" fill="none" xmlns="http://www.w3.org/2000/svg">
<path d="M65.4857 38.3428H34.5143C29.6513 38.1533 25.0506 36.0881 21.677 32.5805C18.3034 29.0728 16.419 24.3952 16.419 19.5285C16.419 14.6618 18.3034 9.98419 21.677 6.47655C25.0506 2.96891 29.6513 0.903776 34.5143 0.714233H65.4857C70.3487 0.903776 74.9494 2.96891 78.323 6.47655C81.6966 9.98419 83.5809 14.6618 83.5809 19.5285C83.5809 24.3952 81.6966 29.0728 78.323 32.5805C74.9494 36.0881 70.3487 38.1533 65.4857 38.3428ZM34.5143 7.85709C31.5187 8.00535 28.6948 9.29972 26.6271 11.4723C24.5594 13.6449 23.4062 16.5293 23.4062 19.5285C23.4062 22.5278 24.5594 25.4122 26.6271 27.5847C28.6948 29.7573 31.5187 31.0517 34.5143 31.1999H65.4857C68.4813 31.0517 71.3052 29.7573 73.3729 27.5847C75.4406 25.4122 76.5938 22.5278 76.5938 19.5285C76.5938 16.5293 75.4406 13.6449 73.3729 11.4723C71.3052 9.29972 68.4813 8.00535 65.4857 7.85709H34.5143Z" fill="#001858"/>
<path d="M49.7714 68.7999H34.5143C29.5282 68.7999 24.7464 66.8192 21.2207 63.2936C17.695 59.7679 15.7143 54.986 15.7143 49.9999C15.7143 45.0139 17.695 40.232 21.2207 36.7063C24.7464 33.1807 29.5282 31.2 34.5143 31.2C35.4615 31.2 36.3699 31.5762 37.0397 32.246C37.7094 32.9158 38.0857 33.8242 38.0857 34.7714C38.0857 35.7186 37.7094 36.627 37.0397 37.2968C36.3699 37.9665 35.4615 38.3428 34.5143 38.3428C31.4226 38.3428 28.4576 39.571 26.2714 41.7571C24.0853 43.9432 22.8572 46.9083 22.8572 49.9999C22.8572 53.0916 24.0853 56.0567 26.2714 58.2428C28.4576 60.4289 31.4226 61.6571 34.5143 61.6571H46.2V34.7714C46.2 33.8242 46.5763 32.9158 47.2461 32.246C47.9158 31.5762 48.8242 31.2 49.7714 31.2C50.7186 31.2 51.627 31.5762 52.2968 32.246C52.9666 32.9158 53.3429 33.8242 53.3429 34.7714V65.2285C53.3429 66.1757 52.9666 67.0841 52.2968 67.7539C51.627 68.4237 50.7186 68.7999 49.7714 68.7999Z" fill="#001858"/>
<path d="M34.7429 99.2857C32.2104 99.3844 29.6842 98.9708 27.3154 98.0698C24.9467 97.1688 22.7842 95.7988 20.9576 94.042C19.131 92.2852 17.6778 90.1777 16.6852 87.8458C15.6926 85.514 15.181 83.0057 15.181 80.4714C15.181 77.9371 15.6926 75.4288 16.6852 73.0969C17.6778 70.7651 19.131 68.6576 20.9576 66.9008C22.7842 65.144 24.9467 63.774 27.3154 62.873C29.6842 61.972 32.2104 61.5584 34.7429 61.6571C35.6901 61.6571 36.5985 62.0334 37.2682 62.7032C37.938 63.3729 38.3143 64.2813 38.3143 65.2285C38.3143 66.1757 37.938 67.0841 37.2682 67.7539C36.5985 68.4237 35.6901 68.8 34.7429 68.8C32.4304 68.7943 30.1683 69.4749 28.2429 70.7555C26.3174 72.0361 24.8152 73.8591 23.9263 75.9939C23.0375 78.1287 22.802 80.4792 23.2496 82.7479C23.6973 85.0166 24.808 87.1014 26.4411 88.7386C28.0743 90.3757 30.1564 91.4915 32.424 91.9447C34.6916 92.3979 37.0426 92.1682 39.1796 91.2846C41.3165 90.401 43.1433 88.9032 44.4286 86.9809C45.7139 85.0586 46.4 82.7981 46.4 80.4857V65.2285C46.4 64.2813 46.7763 63.3729 47.4461 62.7032C48.1158 62.0334 49.0242 61.6571 49.9714 61.6571C50.9186 61.6571 51.827 62.0334 52.4968 62.7032C53.1666 63.3729 53.5429 64.2813 53.5429 65.2285V80.4857C53.5353 85.4694 51.5522 90.2469 48.0281 93.7709C44.5041 97.295 39.7266 99.2781 34.7429 99.2857Z" fill="#001858"/>
<path d="M65.2285 69.2857C61.4594 69.2857 57.7749 68.168 54.641 66.074C51.507 63.9799 49.0644 61.0036 47.622 57.5214C46.1796 54.0392 45.8022 50.2074 46.5376 46.5107C47.2729 42.814 49.0879 39.4183 51.7531 36.7531C54.4183 34.0879 57.814 32.2729 61.5107 31.5376C65.2074 30.8022 69.0392 31.1796 72.5214 32.622C76.0036 34.0644 78.9799 36.507 81.074 39.641C83.168 42.7749 84.2857 46.4594 84.2857 50.2285C84.2857 52.7312 83.7928 55.2093 82.835 57.5214C81.8773 59.8335 80.4736 61.9344 78.704 63.704C76.9344 65.4736 74.8335 66.8773 72.5214 67.835C70.2093 68.7928 67.7312 69.2857 65.2285 69.2857ZM65.2285 38.3428C62.8709 38.3428 60.5663 39.0423 58.6064 40.3527C56.6464 41.6632 55.1194 43.5256 54.2185 45.7043C53.3175 47.8831 53.0833 50.2801 53.5453 52.592C54.0074 54.9039 55.1449 57.0268 56.814 58.6919C58.4831 60.357 60.6087 61.4895 62.9217 61.9459C65.2348 62.4024 67.6312 62.1624 69.8078 61.2563C71.9843 60.3501 73.8431 58.8186 75.1488 56.8555C76.4545 54.8925 77.1485 52.5862 77.1428 50.2285C77.1353 47.0736 75.8767 44.0505 73.6431 41.8223C71.4096 39.5941 68.3835 38.3428 65.2285 38.3428Z" fill="#001858"/>
<path d="M49.7714 38.3428C49.3024 38.3391 48.8387 38.243 48.4069 38.06C47.975 37.8771 47.5834 37.6109 47.2544 37.2766C46.9254 36.9423 46.6655 36.5465 46.4895 36.1117C46.3135 35.677 46.2248 35.2118 46.2286 34.7428L46.4571 4.25709C46.4646 3.31978 46.8403 2.42297 47.5031 1.76017C48.1659 1.09736 49.0627 0.721702 50 0.714233C50.469 0.71797 50.9327 0.814053 51.3646 0.996996C51.7964 1.17994 52.1881 1.44616 52.517 1.78045C52.846 2.11474 53.106 2.51057 53.282 2.94531C53.458 3.38006 53.5466 3.84522 53.5429 4.31423L53.3143 34.7999C53.2996 35.735 52.9216 36.6276 52.2603 37.2888C51.5991 37.9501 50.7065 38.3281 49.7714 38.3428Z" fill="#001858"/>
</svg>
