<svg width="100" height="100" viewBox="0 0 100 100" fill="none" xmlns="http://www.w3.org/2000/svg">
<path d="M85.9844 21.0719L67.2344 9.82187C67.15 9.77187 67.0562 9.74687 66.9656 9.70624C65.725 8.96249 64.1219 9.09687 63.0937 10.1969L36.7844 38.3875L22.2844 25.0937C21.3281 24.2187 19.9281 24.0281 18.775 24.6031L11.2406 28.3687C10.3562 28.8094 9.73436 29.6375 9.56248 30.6094C9.39061 31.5812 9.68123 32.575 10.3531 33.2937L25.9437 50L10.3531 66.7062C9.68123 67.425 9.38748 68.4219 9.56248 69.3906C9.73748 70.3594 10.3594 71.1906 11.2406 71.6312L18.775 75.4C19.2187 75.6219 19.6969 75.7281 20.1719 75.7281C20.8875 75.7281 21.6 75.4812 22.175 75.0031L37.4219 62.2969L63.0937 89.8031C63.7094 90.4625 64.5437 90.7969 65.3781 90.7969C65.95 90.7969 66.5 90.5875 67.0031 90.275C67.0781 90.2375 67.1594 90.2219 67.2312 90.1781L85.9812 78.9281C86.9219 78.3656 87.5 77.3469 87.5 76.25V23.75C87.5 22.6531 86.9219 21.6344 85.9844 21.0719ZM19.7406 68.8937L17.775 67.9125L30.2156 54.5812L33.1469 57.7219L19.7406 68.8937ZM62.5 80.0062L17.775 32.0875L19.6469 31.1531L62.5 70.4375V80.0062ZM62.5 61.9562L50.7531 51.1875L62.5 41.4V61.9562ZM62.5 33.2625L46.1031 46.925L41.3937 42.6062L62.5 19.9937V33.2625ZM81.25 74.4781L68.75 81.9781V18.0187L81.25 25.5187V74.4781Z" fill="#001858"/>
</svg>
