<svg width="100" height="100" viewBox="0 0 100 100" fill="none" xmlns="http://www.w3.org/2000/svg">
<rect x="3" y="3" width="94" height="94" stroke="#001858" stroke-width="6"/>
<path d="M34.35 59.8L31.125 72.1C31.125 72.425 30.925 72.5 30.5 72.5H24.5C24.075 72.5 24 72.375 24.075 71.875L35.7 31.2C35.9791 30.0881 36.1219 28.9464 36.125 27.8C36.125 27.525 36.125 27.4 36.45 27.4H45C45.3 27.4 45.425 27.4 45.5 27.8L58.525 71.975C58.525 72.3 58.525 72.5 58.2 72.5H51.425C51.1 72.5 50.9 72.5 50.8 72.125L47.5 59.8H34.35ZM45.725 53.175C44.575 48.65 41.875 38.725 40.85 33.95C40 38.725 37.825 46.825 36.1 53.175H45.725ZM64.15 30.425C64.15 29.3177 64.5899 28.2558 65.3729 27.4728C66.1558 26.6899 67.2178 26.25 68.325 26.25C69.4323 26.25 70.4942 26.6899 71.2772 27.4728C72.0602 28.2558 72.5 29.3177 72.5 30.425C72.5425 30.9906 72.461 31.5587 72.2614 32.0896C72.0617 32.6205 71.7486 33.1014 71.344 33.4989C70.9394 33.8964 70.4529 34.2008 69.9186 34.391C69.3842 34.5812 68.8148 34.6525 68.25 34.6C67.6953 34.6382 67.1388 34.5558 66.619 34.3584C66.0991 34.1611 65.6282 33.8534 65.2386 33.4567C64.849 33.0599 64.5499 32.5835 64.362 32.0602C64.1741 31.5368 64.1018 30.979 64.15 30.425ZM64.65 39.725C64.65 39.4 64.775 39.225 65.125 39.225H71.55C71.875 39.225 72.05 39.35 72.05 39.725V72C72.05 72.325 72.05 72.5 71.55 72.5H65.225C64.8 72.5 64.675 72.3 64.675 71.975V39.725H64.65Z" fill="#001858"/>
</svg>
