<svg width="100" height="100" viewBox="0 0 100 100" fill="none" xmlns="http://www.w3.org/2000/svg">
<rect x="3" y="3" width="94" height="94" stroke="#001858" stroke-width="6"/>
<path d="M35.7 27.5C31.65 27.5 27.8 27.5 25.175 27.7C24.85 27.7 24.275 27.9 24.275 28.2V72C24.275 72.375 24.45 72.5 24.775 72.5H31C31.375 72.5 31.5 72.325 31.5 72V56.35C32.6 56.35 33.125 56.35 34.675 56.35C43.9 56.35 51.4 51.9 51.4 41.55C51.4 33.7 47 27.5 35.7 27.5ZM34.85 50C33.7509 50.0626 32.6491 50.0626 31.55 50V34.1C32.275 34.1 33.825 33.975 35.45 33.975C40.875 33.975 44.1 36.6 44.1 41.775C44.1 48.25 39.6 50 34.85 50ZM75.8 63.2C75.8 69.725 70.8 73.2 64.05 73.2C61.1576 73.3063 58.2829 72.7056 55.675 71.45C55.4 71.325 55.35 71.125 55.35 70.8V64.75C55.35 64.35 55.55 64.225 55.85 64.425C58.2869 66.0278 61.1334 66.8957 64.05 66.925C67.3 66.925 68.65 65.575 68.65 63.725C68.65 61.875 67.7 60.95 63.65 58.725C57.85 55.95 55.425 53.125 55.425 48.425C55.425 43.15 59.55 38.775 66.7 38.775C69.1942 38.6615 71.6856 39.0526 74.025 39.925C74.1575 40.01 74.2646 40.1292 74.335 40.27C74.4054 40.4108 74.4365 40.568 74.425 40.725V46.325C74.425 46.675 74.225 46.875 73.825 46.75C71.6304 45.5188 69.1399 44.9135 66.625 45C63.4 45 62.3 46.65 62.3 48C62.3 49.35 63.05 50.5 67.3 52.725C73.8 55.775 75.8 58.75 75.8 63.125V63.2Z" fill="#001858"/>
</svg>
