<svg width="100" height="100" viewBox="0 0 100 100" fill="none" xmlns="http://www.w3.org/2000/svg">
<path d="M28.8501 17.2844H32.4238V21.1984H36.3325V9.50916H32.4238V13.3721H28.8501V9.50916H24.9431V21.1984H28.8501V17.2844Z" fill="#001858"/>
<path d="M41.469 21.1984H45.376V13.3879H48.8138V9.50916H38.0312V13.3879H41.469V21.1984Z" fill="#001858"/>
<path d="M54.3489 15.4076L57.0406 19.5615H57.1058L59.7922 15.4076V21.1984H63.6851V9.50916H59.6105L57.1058 13.6225L54.6011 9.50916H50.5283V21.1984H54.3489V15.4076Z" fill="#001858"/>
<path d="M75.0304 17.3373H69.5359V9.50916H65.6289V21.1984H75.0304V17.3373Z" fill="#001858"/>
<path d="M19.3128 26.3278L24.9008 89.0022L49.985 95.9642L75.0887 89.0057L80.6872 26.3278H19.3128ZM68.564 46.8241H49.9991H39.1477L39.8497 54.6963H49.9991H67.8655L65.7577 78.3024L49.9991 82.668L49.9886 82.6716L34.2406 78.3024L33.1417 65.9552H40.8569L41.4284 72.3599L49.9903 74.6741L50.0009 74.6706L58.5716 72.3564L59.4642 62.3869H50.0009H32.8224L30.7463 39.1406H49.9991H69.2502L68.564 46.8241Z" fill="#001858"/>
</svg>
