<svg width="100" height="103" viewBox="0 0 100 103" fill="none" xmlns="http://www.w3.org/2000/svg">
<path d="M75.6049 73.3637C75.4535 73.3637 75.2976 73.3474 75.1462 73.3169C74.534 73.1929 74.0009 72.83 73.6587 72.3056L28.8465 3.62488C28.2552 2.71893 28.36 1.5274 29.0956 0.738501C29.8335 -0.0550762 31.0091 -0.223624 31.9449 0.305428L98.8234 38.65C99.9222 39.282 100.32 40.6749 99.722 41.7962L86.7811 65.9547C86.6019 66.2894 86.3435 66.575 86.0316 66.7834L76.9038 72.9634C76.5197 73.228 76.0634 73.3637 75.6049 73.3637ZM38.0487 9.19631L76.259 67.7595L82.954 63.2251L94.5447 41.5855L38.0487 9.19631Z" fill="#001858"/>
<path d="M40.3277 102.862C40.0414 102.862 39.7527 102.81 39.478 102.7L12.0995 91.8852C11.3313 91.5809 10.7796 90.8927 10.6516 90.0733L0.029318 22.5139C-0.112684 21.6243 0.269092 20.7348 1.00238 20.2221L29.4704 0.417793C29.9872 0.05963 30.6204 -0.0808261 31.2396 0.0455845C31.8565 0.164972 32.3966 0.530158 32.7411 1.05687L77.6907 69.74C78.3425 70.7372 78.1446 72.0692 77.2321 72.83L41.8106 102.323C41.3869 102.677 40.8608 102.862 40.3277 102.862ZM15.0397 88.0157L39.8994 97.8359L72.6484 70.5593L30.1594 5.62872L4.85507 23.2349L15.0397 88.0157Z" fill="black"/>
<path d="M69.6128 103C69.2357 103 68.8586 102.909 68.5117 102.724L50.531 93.0323C49.8559 92.6671 49.4019 91.9929 49.3181 91.2251L41.8269 22.9634C41.7501 22.2611 41.9922 21.5611 42.4857 21.0602L61.0089 2.23904C61.5583 1.67722 62.3521 1.43376 63.1226 1.5906C63.8908 1.7451 64.5287 2.27884 64.822 3.00921L73.2676 24.0776L99.7895 82.8375C100.281 83.9214 99.8803 85.2042 98.8653 85.8128L70.8047 102.668C70.4392 102.89 70.0272 103 69.6128 103ZM53.8133 89.4881L69.5523 97.9717L94.6937 82.8679L68.9936 25.9223L61.8306 8.06329L46.5758 23.5603L53.8133 89.4881Z" fill="#001858"/>
<path d="M40.3277 102.862C40.0414 102.862 39.7527 102.81 39.478 102.7L12.0995 91.8852C11.3313 91.5809 10.7796 90.8927 10.6516 90.0733L0.029318 22.5139C-0.112684 21.6243 0.269092 20.7348 1.00238 20.2221L29.4704 0.417793C29.9872 0.05963 30.6204 -0.0808261 31.2396 0.0455845C31.8565 0.164972 32.3966 0.530158 32.7411 1.05687L77.6907 69.74C78.3425 70.7372 78.1446 72.0692 77.2321 72.83L41.8106 102.323C41.3869 102.677 40.8608 102.862 40.3277 102.862ZM15.0397 88.0157L39.8994 97.8359L72.6484 70.5593L30.1594 5.62872L4.85507 23.2349L15.0397 88.0157Z" fill="#001858"/>
<path d="M79.1642 79.5906H23.2944V23.4081H79.1642V79.5906Z" fill="#001858"/>
<path d="M79.1642 81.9316H23.2944C22.0071 81.9316 20.9665 80.8852 20.9665 79.5906V23.4081C20.9665 22.1136 22.0071 21.0672 23.2944 21.0672H79.1642C80.4516 21.0672 81.4921 22.1136 81.4921 23.4081V79.5906C81.4921 80.8852 80.4516 81.9316 79.1642 81.9316ZM25.6223 77.2497H76.8363V25.7491H25.6223V77.2497Z" fill="#001858"/>
<path d="M51.2619 70.1543H30.3107V65.4724H51.2619V70.1543Z" fill="white"/>
<path d="M53.2779 51.4572H61.1579C67.6434 51.4572 72.2131 46.5202 72.2131 40.6515C72.2131 34.9138 67.804 30.3794 61.3185 30.3794H53.2779V51.4572ZM61.3185 34.4948C65.0804 34.4948 67.5433 37.1143 67.5433 40.9769C67.5433 44.7013 64.95 47.3208 61.3185 47.3208L58.0198 47.3278V34.4925L61.3185 34.4948Z" fill="white"/>
<path d="M34.9619 51.4268V45.0267H38.4631L42.7441 51.4268H48.061L43.0025 43.9616C44.2991 43.4278 45.3374 42.6272 46.1149 41.5621C46.8924 40.497 47.2812 39.1626 47.2812 37.428V37.2946C47.2812 35.2954 46.7621 33.6942 45.5958 32.4957C44.1688 31.1613 42.2226 30.3631 39.6294 30.3631H30.2898V51.4268H34.9619ZM34.9619 40.4946V34.4948H39.371C40.5372 34.4948 41.3171 34.8951 41.9643 35.2954C42.6137 35.8291 42.8721 36.4963 42.8721 37.5614V37.6949C42.8721 38.4955 42.6137 39.2937 41.9643 39.8275C41.3148 40.3612 40.4371 40.4946 39.3989 40.4946H34.9619Z" fill="white"/>
</svg>
